<svg width="14" height="14" viewBox="0 0 14 14" fill="none" xmlns="http://www.w3.org/2000/svg">
<path d="M7.00004 0.333374C5.6815 0.333374 4.39257 0.724368 3.29624 1.45691C2.19991 2.18945 1.34543 3.23064 0.840847 4.44882C0.336263 5.66699 0.20424 7.00744 0.461475 8.30064C0.71871 9.59385 1.35365 10.7817 2.286 11.7141C3.21835 12.6464 4.40623 13.2814 5.69944 13.5386C6.99265 13.7958 8.33309 13.6638 9.55127 13.1592C10.7694 12.6547 11.8106 11.8002 12.5432 10.7038C13.2757 9.60751 13.6667 8.31858 13.6667 7.00004C13.6667 5.23193 12.9643 3.53624 11.7141 2.286C10.4638 1.03575 8.76815 0.333374 7.00004 0.333374ZM9.80004 9.18337C9.8785 9.26183 9.92258 9.36825 9.92258 9.47921C9.92258 9.59017 9.8785 9.69658 9.80004 9.77504C9.72158 9.8535 9.61517 9.89758 9.50421 9.89758C9.39325 9.89758 9.28684 9.8535 9.20838 9.77504L7.00838 7.56671L4.80004 9.77504C4.76154 9.81278 4.71594 9.84252 4.66588 9.86255C4.61582 9.88257 4.56229 9.89248 4.50838 9.89171C4.45313 9.89313 4.39816 9.88354 4.34666 9.86351C4.29515 9.84349 4.24815 9.81341 4.20838 9.77504C4.1315 9.69575 4.08851 9.58965 4.08851 9.47921C4.08851 9.36877 4.1315 9.26266 4.20838 9.18337L6.41671 7.00004L4.20838 4.80004C4.16953 4.76119 4.13871 4.71507 4.11768 4.66431C4.09666 4.61355 4.08584 4.55915 4.08584 4.50421C4.08584 4.44927 4.09666 4.39486 4.11768 4.3441C4.13871 4.29334 4.16953 4.24722 4.20838 4.20838C4.24723 4.16953 4.29335 4.13871 4.34411 4.11768C4.39487 4.09666 4.44927 4.08583 4.50421 4.08583C4.55915 4.08583 4.61355 4.09666 4.66431 4.11768C4.71507 4.13871 4.76119 4.16953 4.80004 4.20838L7.00838 6.41671L9.20838 4.20838C9.28767 4.1315 9.39377 4.08851 9.50421 4.08851C9.61465 4.08851 9.72075 4.1315 9.80004 4.20838C9.8391 4.24711 9.87009 4.29319 9.89125 4.34397C9.9124 4.39474 9.92329 4.4492 9.92329 4.50421C9.92329 4.55921 9.9124 4.61367 9.89125 4.66445C9.87009 4.71522 9.8391 4.76131 9.80004 4.80004L7.59171 7.00004L9.80004 9.18337Z" fill="#D2D2D2"/>
</svg>
