<svg width="16" height="16" viewBox="0 0 16 16" fill="none" xmlns="http://www.w3.org/2000/svg">
<path d="M1.17059 0.200841C0.902799 -0.066947 0.468629 -0.066947 0.200841 0.200841C-0.066947 0.468629 -0.066947 0.902799 0.200841 1.17059L7.03025 8L0.200841 14.8294C-0.066947 15.0972 -0.066947 15.5314 0.200841 15.7992C0.468629 16.0669 0.902799 16.0669 1.17059 15.7992L8 8.96975L14.8294 15.7992C15.0972 16.0669 15.5314 16.0669 15.7992 15.7992C16.0669 15.5314 16.0669 15.0972 15.7992 14.8294L8.96975 8L15.7992 1.17059C16.0669 0.902799 16.0669 0.468629 15.7992 0.200841C15.5314 -0.066947 15.0972 -0.066947 14.8294 0.200841L8 7.03025L1.17059 0.200841Z" fill="#171717"/>
</svg>
