<svg width="18" height="15" viewBox="0 0 18 15" fill="none" xmlns="http://www.w3.org/2000/svg">
<path fill-rule="evenodd" clip-rule="evenodd" d="M14.2083 2.5C14.2083 2.15482 14.4881 1.875 14.8333 1.875H16.4999C16.8451 1.875 17.1249 2.15482 17.1249 2.5C17.1249 2.84518 16.8451 3.125 16.4999 3.125H14.8333C14.4881 3.125 14.2083 2.84518 14.2083 2.5Z" fill="#171717"/>
<path fill-rule="evenodd" clip-rule="evenodd" d="M0.875 2.5C0.875 2.15482 1.15482 1.875 1.5 1.875H11.4998C11.845 1.875 12.1248 2.15482 12.1248 2.5C12.1248 2.84518 11.845 3.125 11.4998 3.125H1.5C1.15482 3.125 0.875 2.84518 0.875 2.5Z" fill="#171717"/>
<path fill-rule="evenodd" clip-rule="evenodd" d="M13.1666 1.45834C12.5914 1.45834 12.125 1.9247 12.125 2.50001C12.125 3.07532 12.5914 3.54168 13.1666 3.54168C13.7419 3.54168 14.2083 3.07532 14.2083 2.50001C14.2083 1.9247 13.7419 1.45834 13.1666 1.45834ZM10.875 2.50001C10.875 1.23437 11.901 0.208344 13.1666 0.208344C14.4323 0.208344 15.4583 1.23437 15.4583 2.50001C15.4583 3.76565 14.4323 4.79168 13.1666 4.79168C11.901 4.79168 10.875 3.76565 10.875 2.50001Z" fill="#171717"/>
<path fill-rule="evenodd" clip-rule="evenodd" d="M5.87421 7.5C5.87421 7.15482 6.15403 6.875 6.49921 6.875H16.499C16.8442 6.875 17.124 7.15482 17.124 7.5C17.124 7.84518 16.8442 8.125 16.499 8.125H6.49921C6.15403 8.125 5.87421 7.84518 5.87421 7.5Z" fill="#171717"/>
<path fill-rule="evenodd" clip-rule="evenodd" d="M0.875 7.5C0.875 7.15482 1.15482 6.875 1.5 6.875H3.16664C3.51181 6.875 3.79164 7.15482 3.79164 7.5C3.79164 7.84518 3.51181 8.125 3.16664 8.125H1.5C1.15482 8.125 0.875 7.84518 0.875 7.5Z" fill="#171717"/>
<path fill-rule="evenodd" clip-rule="evenodd" d="M4.83247 6.45834C4.2572 6.45834 3.79083 6.9247 3.79083 7.50001C3.79083 8.07532 4.2572 8.54168 4.83247 8.54168C5.40774 8.54168 5.87411 8.07532 5.87411 7.50001C5.87411 6.9247 5.40774 6.45834 4.83247 6.45834ZM2.54083 7.50001C2.54083 6.23437 3.56682 5.20834 4.83247 5.20834C6.09812 5.20834 7.12411 6.23437 7.12411 7.50001C7.12411 8.76565 6.09812 9.79168 4.83247 9.79168C3.56682 9.79168 2.54083 8.76565 2.54083 7.50001Z" fill="#171717"/>
<path fill-rule="evenodd" clip-rule="evenodd" d="M12.5408 12.5C12.5408 12.1548 12.8207 11.875 13.1658 11.875H16.4991C16.8443 11.875 17.1241 12.1548 17.1241 12.5C17.1241 12.8451 16.8443 13.125 16.4991 13.125H13.1658C12.8207 13.125 12.5408 12.8451 12.5408 12.5Z" fill="#171717"/>
<path fill-rule="evenodd" clip-rule="evenodd" d="M0.875 12.5C0.875 12.1548 1.15482 11.875 1.5 11.875H9.83318C10.1784 11.875 10.4582 12.1548 10.4582 12.5C10.4582 12.8451 10.1784 13.125 9.83318 13.125H1.5C1.15482 13.125 0.875 12.8451 0.875 12.5Z" fill="#171717"/>
<path fill-rule="evenodd" clip-rule="evenodd" d="M11.4992 11.4583C10.9239 11.4583 10.4575 11.9247 10.4575 12.5C10.4575 13.0753 10.9239 13.5417 11.4992 13.5417C12.0744 13.5417 12.5408 13.0753 12.5408 12.5C12.5408 11.9247 12.0744 11.4583 11.4992 11.4583ZM9.20752 12.5C9.20752 11.2344 10.2335 10.2083 11.4992 10.2083C12.7648 10.2083 13.7908 11.2344 13.7908 12.5C13.7908 13.7657 12.7648 14.7917 11.4992 14.7917C10.2335 14.7917 9.20752 13.7657 9.20752 12.5Z" fill="#171717"/>
</svg>
