<svg width="15" height="15" viewBox="0 0 15 15" fill="none" xmlns="http://www.w3.org/2000/svg">
<path fill-rule="evenodd" clip-rule="evenodd" d="M10.6667 6.33333C10.6667 8.72657 8.72657 10.6667 6.33333 10.6667C3.9401 10.6667 2 8.72657 2 6.33333C2 3.9401 3.9401 2 6.33333 2C8.72657 2 10.6667 3.9401 10.6667 6.33333ZM9.89974 10.9498C8.91368 11.7127 7.67652 12.1667 6.33333 12.1667C3.11167 12.1667 0.5 9.55499 0.5 6.33333C0.5 3.11167 3.11167 0.5 6.33333 0.5C9.55499 0.5 12.1667 3.11167 12.1667 6.33333C12.1667 7.67652 11.7127 8.91368 10.9498 9.89974C10.9779 9.92082 11.0048 9.94413 11.0303 9.96967L14.3637 13.303C14.6566 13.5959 14.6566 14.0708 14.3637 14.3637C14.0708 14.6566 13.5959 14.6566 13.303 14.3637L9.96967 11.0303C9.94413 11.0048 9.92082 10.9779 9.89974 10.9498Z" fill="#171717"/>
</svg>
