<svg xmlns="http://www.w3.org/2000/svg" width="52" height="54"><g data-name="그룹 2"><g data-name="그룹 1" fill="#fff"><path data-name="사각형 2" d="M0 0h52v54H0z"/><g data-name="패스 1"><path d="M44 52.5H8C3.864 52.5.5 49.136.5 45V9C.5 4.864 3.864 1.5 8 1.5h36c4.136 0 7.5 3.364 7.5 7.5v36c0 4.136-3.364 7.5-7.5 7.5z"/><path d="M8 2C4.14 2 1 5.14 1 9v36c0 3.86 3.14 7 7 7h36c3.86 0 7-3.14 7-7V9c0-3.86-3.14-7-7-7H8m0-1h36a8 8 0 018 8v36a8 8 0 01-8 8H8a8 8 0 01-8-8V9a8 8 0 018-8z" fill="#d2d2d2"/></g></g><path d="M29.311 33.248a.75.75 0 01-1.059.062l-6-5.333a.75.75 0 01-.017-1.106l6-5.671a.753.753 0 111.03 1.1l-5.4 5.1 5.383 4.789a.75.75 0 01.063 1.059z" fill="#171717" fill-rule="evenodd"/></g></svg>